Land_normalized_pl04_filtered_grf
version=1
nRows=12
nColumns=37
inDegrees=yes
endheader
time		1_ground_force_vx		1_ground_force_vy		1_ground_force_vz		1_ground_force_px		1_ground_force_py		1_ground_force_pz		1_ground_torque_x		1_ground_torque_y		1_ground_torque_z		2_ground_force_vx		2_ground_force_vy		2_ground_force_vz		2_ground_force_px		2_ground_force_py		2_ground_force_pz		2_ground_torque_x		2_ground_torque_y		2_ground_torque_z		3_ground_force_vx		3_ground_force_vy		3_ground_force_vz		3_ground_force_px		3_ground_force_py		3_ground_force_pz		3_ground_torque_x		3_ground_torque_y		3_ground_torque_z		4_ground_force_vx		4_ground_force_vy		4_ground_force_vz		4_ground_force_px		4_ground_force_py		4_ground_force_pz		4_ground_torque_x		4_ground_torque_y		4_ground_torque_z		
0.731167		0.088927		586.504970		249.044272		0.099443		0.000000		0.258200		0.001583		10.329808		4.386320		54.496157		1002.543182		256.249580		-0.129948		0.000000		0.266743		-0.539349		-9.922253		-2.536138		22.123493		0.833069		0.961466		0.375182		1.311246		1.913552		-0.093649		-0.003526		-0.004070		-18.420147		-0.976430		1.977842		-0.265622		1.310171		1.924155		-0.004157		-0.000220		0.000447		
0.734096		-4.745963		586.136001		237.736233		0.100751		0.000000		0.258453		-0.081474		10.063072		4.081592		56.183690		984.502855		245.889886		-0.130037		0.000000		0.266334		-0.532171		-9.325329		-2.329111		22.114010		0.713930		0.929715		0.375194		1.311255		1.913553		-0.093129		-0.003007		-0.003915		-18.548520		-0.918645		2.064338		-0.265618		1.310177		1.924160		-0.002748		-0.000136		0.000305		
0.737025		-10.177604		591.713214		225.194546		0.102826		0.000000		0.260528		-0.172236		10.013673		3.811014		59.409898		967.112589		236.531066		-0.130551		0.000000		0.266083		-0.528675		-8.606188		-2.104858		22.115230		0.669497		0.867546		0.375210		1.311265		1.913546		-0.093746		-0.002838		-0.003678		-18.683458		-0.799837		2.121662		-0.265619		1.310186		1.924156		0.001761		0.000075		-0.000200		
0.739955		-15.933851		602.354669		212.925268		0.105235		0.000000		0.263367		-0.266068		10.058406		3.555539		63.442367		950.168205		228.451833		-0.131344		0.000000		0.265907		-0.522494		-7.825454		-1.881504		22.130189		0.719990		0.799450		0.375228		1.311275		1.913534		-0.095457		-0.003106		-0.003448		-18.800242		-0.652777		2.138585		-0.265621		1.310195		1.924142		0.008311		0.000288		-0.000946		
0.742884		-21.810469		616.643169		201.782375		0.107513		0.000000		0.265819		-0.355919		10.063214		3.292996		67.296286		933.319502		221.390281		-0.132199		0.000000		0.265737		-0.514481		-7.135425		-1.692582		22.163032		0.858152		0.748112		0.375245		1.311283		1.913517		-0.098000		-0.003794		-0.003308		-18.876816		-0.516926		2.123880		-0.265621		1.310202		1.924119		0.015049		0.000412		-0.001693		
0.745813		-27.722297		633.115622		191.837013		0.109391		0.000000		0.267280		-0.435814		9.953585		3.016052		70.195123		916.291048		215.139341		-0.132934		0.000000		0.265501		-0.509068		-6.645203		-1.560255		22.218508		1.047561		0.726074		0.375263		1.311287		1.913493		-0.100931		-0.004759		-0.003298		-18.901228		-0.424662		2.096680		-0.265617		1.310204		1.924089		0.020070		0.000451		-0.002226		
0.748742		-33.601198		650.596072		182.768174		0.110842		0.000000		0.267823		-0.503527		9.749955		2.739073		71.897571		899.099470		209.922869		-0.133473		0.000000		0.265120		-0.506587		-6.335054		-1.479117		22.296580		1.232936		0.733480		0.375281		1.311288		1.913463		-0.103721		-0.005736		-0.003412		-18.876278		-0.393956		2.069900		-0.265606		1.310202		1.924054		0.022156		0.000462		-0.002429		
0.751672		-39.267063		668.289802		174.389568		0.111988		0.000000		0.267933		-0.559836		9.528235		2.486440		72.731345		882.151353		206.311455		-0.133857		0.000000		0.264539		-0.501121		-6.078074		-1.421496		22.388276		1.359785		0.760483		0.375300		1.311288		1.913428		-0.105894		-0.006431		-0.003597		-18.817811		-0.426908		2.040720		-0.265589		1.310192		1.924015		0.021157		0.000480		-0.002295		
0.754601		-44.390142		685.704244		166.882487		0.112979		0.000000		0.268125		-0.605945		9.360302		2.278079		73.303120		866.170988		204.797226		-0.134194		0.000000		0.263755		-0.485830		-5.740752		-1.357336		22.477935		1.396068		0.794177		0.375320		1.311288		1.913387		-0.107109		-0.006652		-0.003785		-18.747667		-0.511886		1.993014		-0.265566		1.310180		1.923972		0.017895		0.000489		-0.001902		
0.757530		-48.574233		702.465679		160.663424		0.113910		0.000000		0.268677		-0.642492		9.291536		2.125104		74.082393		852.003056		205.389331		-0.134578		0.000000		0.262823		-0.458887		-5.277558		-1.272238		22.550097		1.344753		0.825550		0.375340		1.311288		1.913344		-0.107213		-0.006393		-0.003925		-18.685613		-0.626991		1.909601		-0.265540		1.310165		1.923927		0.013734		0.000461		-0.001404		
0.760460		-51.474765		718.146665		156.148571		0.114787		0.000000		0.269570		-0.670511		9.354592		2.033996		75.143003		840.405688		207.525998		-0.135031		0.000000		0.261854		-0.425332		-4.756982		-1.174662		22.596874		1.240002		0.851902		0.375358		1.311288		1.913299		-0.106262		-0.005831		-0.004006		-18.643904		-0.743730		1.786548		-0.265515		1.310152		1.923878		0.010033		0.000400		-0.000961		
0.763389		-52.875911		732.143277		153.626345		0.115535		0.000000		0.270562		-0.690140		9.555989		2.005141		76.214442		831.887599		210.326787		-0.135498		0.000000		0.260967		-0.395012		-4.311624		-1.090101		22.622561		1.129037		0.872998		0.375372		1.311285		1.913257		-0.104546		-0.005218		-0.004035		-18.624807		-0.832749		1.641228		-0.265493		1.310143		1.923827		0.007687		0.000344		-0.000678		
